<?xml version="1.0" encoding="UTF-8"?>
<svg version="1.1" xmlns="http://www.w3.org/2000/svg" width="58" height="58">
<path d="M0 0 C6.24717697 3.82891492 11.25968078 9.50717968 13.6875 16.4375 C15.75930019 25.18510079 14.23640577 32.6536723 9.96875 40.45703125 C8.44817221 42.83956447 6.81993241 44.77403655 4.625 46.5625 C3.635 46.2325 2.645 45.9025 1.625 45.5625 C2.10710938 44.83804688 2.58921875 44.11359375 3.0859375 43.3671875 C3.71757813 42.40039062 4.34921875 41.43359375 5 40.4375 C5.62648437 39.48617187 6.25296875 38.53484375 6.8984375 37.5546875 C9.97337697 32.22572 11.08037092 27.71000744 10.625 21.5625 C9.965 20.2425 9.305 18.9225 8.625 17.5625 C-0.945 18.5525 -10.515 19.5425 -20.375 20.5625 C-20.49875 23.3675 -20.6225 26.1725 -20.75 29.0625 C-21.18186823 37.9673593 -22.12149301 46.73927117 -23.375 55.5625 C-24.365 55.5625 -25.355 55.5625 -26.375 55.5625 C-26.375 52.5925 -26.375 49.6225 -26.375 46.5625 C-27.695 45.9025 -29.015 45.2425 -30.375 44.5625 C-35.36656137 39.32744783 -38.27649334 33.81264396 -39.375 26.5625 C-40.695 26.8925 -42.015 27.2225 -43.375 27.5625 C-43.125 25.1875 -43.125 25.1875 -42.375 22.5625 C-41.72917969 22.27632812 -41.08335938 21.99015625 -40.41796875 21.6953125 C-38.17884938 20.73472721 -38.17884938 20.73472721 -37.50390625 18.390625 C-37.31699219 17.53984375 -37.13007812 16.6890625 -36.9375 15.8125 C-35.38535632 10.1048817 -33.25264002 6.42688649 -28.15625 3.125 C-19.72151136 -1.69485065 -9.35485275 -4.10791937 0 0 Z M-31.375 10.5625 C-32.93303049 13.13771599 -34.40423513 15.70693842 -35.375 18.5625 C-35.045 19.2225 -34.715 19.8825 -34.375 20.5625 C-28.435 19.0775 -28.435 19.0775 -22.375 17.5625 C-22.045 15.9125 -21.715 14.2625 -21.375 12.5625 C-20.385 12.5625 -19.395 12.5625 -18.375 12.5625 C-18.705 14.2125 -19.035 15.8625 -19.375 17.5625 C-10.465 16.5725 -1.555 15.5825 7.625 14.5625 C7.625 10.99896629 6.55511006 9.66103926 4.21875 7.05859375 C-0.60439844 2.53098137 -5.31541316 1.29026343 -11.875 1.0625 C-20.27495128 1.34444281 -26.0030999 3.99684432 -31.375 10.5625 Z M-30.4375 22.0625 C-31.54222656 22.3409375 -32.64695312 22.619375 -33.78515625 22.90625 C-34.63980469 23.1228125 -35.49445312 23.339375 -36.375 23.5625 C-35.7083033 31.29618176 -33.72718824 36.70854412 -28.375 42.5625 C-27.385 42.8925 -26.395 43.2225 -25.375 43.5625 C-25.03824721 40.66702736 -24.70548266 37.77118928 -24.375 34.875 C-24.23191406 33.65006836 -24.23191406 33.65006836 -24.0859375 32.40039062 C-23.63629478 28.43389948 -23.24465457 24.56247537 -23.375 20.5625 C-25.71907289 20.5625 -28.18924544 21.4945199 -30.4375 22.0625 Z " fill="#00232B" transform="translate(43.375,1.4375)"/>
<path d="M0 0 C0.99 0 1.98 0 3 0 C2 7 1 14 0 21 C0.99 20.34 1.98 19.68 3 19 C4.32 19 5.64 19 7 19 C5.75453595 22.73639216 4.36595047 23.18756513 1 25 C8.04207705 24.2812193 8.04207705 24.2812193 15 23 C15 23.99 15 24.98 15 26 C9.30601106 28.09570426 4.04801071 29.45018084 -2 30 C-2 31.32 -2 32.64 -2 34 C-2.99 34 -3.98 34 -5 34 C-6.01308342 29.13719958 -5.8606601 26.06462628 -4.55664062 21.19824219 C-3.63200484 17.54674192 -3.05322051 13.83886975 -2.4375 10.125 C-1.13501908 2.27003817 -1.13501908 2.27003817 0 0 Z " fill="#00232B" transform="translate(29,24)"/>
</svg>
