<svg width="193" height="58" viewBox="0 0 193 58" fill="none" xmlns="http://www.w3.org/2000/svg">
<path d="M22.8039 14.5815C21.5306 15.8464 21.3619 18.1048 20.8317 19.7394L20.5772 21.3833C20.3936 22.4376 20.1191 25.2902 19.9945 26.3604C19.5976 29.6011 19.2609 32.8484 18.9848 36.1005C18.5056 40.8537 18.1024 45.6136 17.7751 50.3786C17.69 51.7069 16.9557 56.4358 18.1768 57.1891C19.3448 57.3975 19.7865 55.559 19.8788 54.7241C20.8756 45.7123 21.4302 36.6752 22.1036 27.6387C22.2489 25.689 22.5461 23.7918 22.7464 21.8597L23.0548 19.509C23.1964 18.7079 23.3207 17.7146 23.614 16.9696C23.778 16.5534 24.4253 16.0653 24.5821 15.5764C24.9045 14.572 23.4978 13.8921 22.8039 14.5815Z" fill="#00242C"/>
<path d="M32.1432 18.1084C29.4288 18.3852 25.2837 18.779 22.6203 19.3022L20.5048 19.5426C18.1597 20.1366 15.7084 20.2656 13.3443 20.7667C10.9473 21.2748 1.50406 24.0096 0.282503 26.073C0.0302663 26.499 -0.065938 26.9966 0.0465813 27.4881C0.121492 27.8154 0.344945 28.3208 0.621259 28.5055C0.782464 28.6132 0.925482 28.6255 1.10425 28.5723C1.8687 28.3448 2.19529 27.1469 2.79566 26.6552C3.36702 26.1872 4.29867 25.9119 4.98268 25.6484L5.23458 25.5158C5.41997 25.4345 5.66711 25.3731 5.86534 25.3174C8.90834 24.1176 16.8722 22.2229 20.2396 21.9886L22.3314 21.7061C26.2455 20.8663 30.0909 20.7007 34.0239 20.2216C39.6445 19.5368 45.3107 19.2416 50.9068 18.4663C51.3832 18.4004 52.4683 16.9967 52.4375 16.3156C52.1016 15.7702 51.6382 15.861 51.0956 15.9847C49.8311 16.2733 48.592 16.437 47.3064 16.5786L32.1432 18.1084Z" fill="#00242C"/>
<path d="M30.234 0.00187608C34.1363 -0.0289593 36.8279 0.311133 40.4589 1.70534C58.3586 8.57824 62.9235 32.1344 49.1907 45.5449C48.7058 46.0185 47.0728 47.6861 46.4076 47.6709C45.9044 47.3321 45.1085 46.4016 45.7239 45.8898C49.7238 42.5635 52.6139 38.6027 54.1779 33.4072C55.5344 28.9011 55.5435 24.0897 54.2041 19.5784C53.9611 18.762 53.712 17.8644 53.319 17.1183C52.8895 15.7282 51.1996 12.857 50.3583 11.6662C46.9329 6.81713 40.8388 3.28758 35.0707 2.33801C28.7218 1.32845 22.2353 2.88996 17.016 6.68442C12.1658 10.228 8.43528 16.1067 7.48533 22.1032L5.56177 21.7097C6.77203 16.5358 7.66535 13.6421 11.1635 9.36492C14.6691 5.07853 20.1354 1.87528 25.4576 0.595422C26.8542 0.259556 28.7751 0.132306 30.234 0.00187608Z" fill="#00242C"/>
<path d="M31.7488 25.9428C31.9048 25.2549 31.4921 23.7691 30.5587 23.8381C29.7645 24.1657 29.52 24.518 29.2005 25.3645C28.4342 27.3952 27.9924 29.8346 27.5865 31.9708C26.6721 36.8486 25.9179 41.7556 25.3255 46.6836C25.2654 47.1668 25.1226 48.8142 24.9872 49.1833C24.8567 50.1625 24.6468 52.0782 24.6442 52.6346C24.639 53.7277 24.6178 54.8398 24.6411 55.9312C24.6573 56.6941 24.65 58.02 25.6438 57.9998C25.9973 57.8535 26.1466 57.6212 26.3893 57.3256C26.7321 55.8828 26.7238 54.3256 27.0034 52.8737L27.6067 47.1541C28.5567 41.6125 29.1152 36.0007 30.2276 30.4784C30.5594 28.8316 31.333 27.5384 31.7488 25.9428Z" fill="#00242C"/>
<path d="M6.65836 25.425C6.88489 26.5306 6.71434 27.7096 6.84902 28.8007C7.7004 35.6977 11.6928 42.107 17.4791 46.0108L16.3445 47.6715C11.2801 44.6532 6.8181 38.1818 5.61315 32.5129C5.2773 30.9329 4.55675 27.2624 4.82575 25.7272C5.01249 25.6501 5.48175 25.5819 5.70048 25.5434C5.94977 25.5191 6.43465 25.4865 6.65836 25.425Z" fill="#00242C"/>
<path d="M33.1733 43.1411C31.1665 44.2193 29.3376 45.5866 27.5344 46.9944L24.882 49.1786C24.4005 49.6703 22.9996 51.7324 24.5346 52.8937C24.9819 53.2321 26.5586 53.2271 27.2023 53.2321C28.6033 53.2429 30.2294 52.9891 31.8314 52.7495C33.997 52.4255 42.7479 50.7255 44.0839 49.3632C44.3024 49.1405 44.446 48.9204 44.4929 48.5944C44.2172 47.5345 43.0529 47.6349 42.287 47.976C38.0914 49.1995 31.1596 51.2187 26.8444 50.8619C28.5246 49.0379 31.1841 47.4305 33.212 46.0192C33.5745 45.7669 34.6745 45.756 34.9479 45.4748C36.3168 44.0657 34.8368 42.2474 33.1733 43.1411Z" fill="#00242C"/>
<path d="M189.243 28.0324C188.302 28.0324 187.544 27.7657 186.969 27.2325C186.404 26.6887 186.122 25.9673 186.122 25.068V19.7668C186.122 18.8675 186.404 18.1513 186.969 17.618C187.544 17.0743 188.302 16.8024 189.243 16.8024C190.184 16.8024 190.942 17.0743 191.517 17.618C192.092 18.1617 192.38 18.8832 192.38 19.7824V20.3784C192.38 20.4307 192.359 20.4778 192.317 20.5196C192.285 20.551 192.244 20.5666 192.191 20.5666H190.356C190.304 20.5666 190.257 20.551 190.215 20.5196C190.184 20.4778 190.168 20.4307 190.168 20.3784V19.7511C190.168 19.4374 190.084 19.1864 189.917 18.9982C189.75 18.7996 189.525 18.7002 189.243 18.7002C188.971 18.7002 188.751 18.7996 188.584 18.9982C188.417 19.1864 188.333 19.4374 188.333 19.7511V25.0837C188.333 25.3974 188.417 25.6536 188.584 25.8522C188.751 26.0405 188.971 26.1346 189.243 26.1346C189.525 26.1346 189.75 26.0405 189.917 25.8522C190.084 25.6536 190.168 25.3974 190.168 25.0837V23.829C190.168 23.7767 190.142 23.7506 190.09 23.7506H189.4C189.347 23.7506 189.3 23.7349 189.258 23.7035C189.227 23.6617 189.211 23.6146 189.211 23.5623V22.1664C189.211 22.1142 189.227 22.0723 189.258 22.041C189.3 21.9991 189.347 21.9782 189.4 21.9782H192.191C192.244 21.9782 192.285 21.9991 192.317 22.041C192.359 22.0723 192.38 22.1142 192.38 22.1664V25.068C192.38 25.9673 192.092 26.6887 191.517 27.2325C190.942 27.7657 190.184 28.0324 189.243 28.0324Z" fill="#00242C"/>
<path d="M176.748 17.1157C176.748 17.0634 176.764 17.0216 176.795 16.9902C176.837 16.9484 176.884 16.9275 176.936 16.9275H178.755C178.808 16.9275 178.85 16.9484 178.881 16.9902C178.923 17.0216 178.944 17.0634 178.944 17.1157V27.7183C178.944 27.7705 178.923 27.8176 178.881 27.8594C178.85 27.8908 178.808 27.9065 178.755 27.9065H176.685C176.581 27.9065 176.513 27.8542 176.481 27.7496L174.536 21.6798C174.526 21.6485 174.505 21.638 174.474 21.6484C174.453 21.6484 174.442 21.6641 174.442 21.6955L174.458 27.7183C174.458 27.7705 174.437 27.8176 174.395 27.8594C174.364 27.8908 174.322 27.9065 174.27 27.9065H172.45C172.398 27.9065 172.351 27.8908 172.309 27.8594C172.278 27.8176 172.262 27.7705 172.262 27.7183V17.1157C172.262 17.0634 172.278 17.0216 172.309 16.9902C172.351 16.9484 172.398 16.9275 172.45 16.9275H174.505C174.61 16.9275 174.678 16.9798 174.709 17.0843L176.669 23.1541C176.68 23.1855 176.696 23.2012 176.717 23.2012C176.748 23.1907 176.764 23.1698 176.764 23.1385L176.748 17.1157Z" fill="#00242C"/>
<path d="M163.346 27.9065C163.221 27.9065 163.153 27.849 163.142 27.7339L162.892 26.2283C162.892 26.176 162.86 26.1498 162.797 26.1498H160.806C160.743 26.1498 160.711 26.176 160.711 26.2283L160.46 27.7339C160.45 27.849 160.382 27.9065 160.257 27.9065H158.422C158.286 27.9065 158.233 27.8385 158.265 27.7026L160.57 17.1C160.591 16.985 160.659 16.9275 160.774 16.9275H162.892C163.007 16.9275 163.075 16.985 163.095 17.1L165.385 27.7026L165.401 27.7653C165.401 27.8594 165.344 27.9065 165.228 27.9065H163.346ZM161.025 24.3618C161.025 24.4141 161.046 24.4402 161.088 24.4402H162.499C162.552 24.4402 162.573 24.4141 162.562 24.3618L161.825 20.08C161.815 20.0487 161.799 20.033 161.778 20.033C161.757 20.033 161.741 20.0487 161.731 20.08L161.025 24.3618Z" fill="#00242C"/>
<path d="M149.645 27.9065C149.53 27.9065 149.457 27.8542 149.425 27.7496L148.218 23.4208C148.197 23.3789 148.171 23.358 148.139 23.358H147.606C147.554 23.358 147.528 23.3842 147.528 23.4365V27.7183C147.528 27.7705 147.507 27.8176 147.465 27.8594C147.434 27.8908 147.392 27.9065 147.339 27.9065H145.504C145.452 27.9065 145.405 27.8908 145.363 27.8594C145.332 27.8176 145.316 27.7705 145.316 27.7183V17.1157C145.316 17.0634 145.332 17.0216 145.363 16.9902C145.405 16.9484 145.452 16.9275 145.504 16.9275H148.673C149.248 16.9275 149.76 17.0686 150.21 17.351C150.659 17.6228 151.004 18.0097 151.245 18.5116C151.496 19.0135 151.621 19.5886 151.621 20.2369C151.621 20.8538 151.501 21.3975 151.26 21.868C151.03 22.3386 150.706 22.7045 150.288 22.9659C150.267 22.9764 150.251 22.9921 150.241 23.013C150.231 23.0234 150.231 23.0391 150.241 23.06L151.684 27.6869L151.7 27.7496C151.7 27.8542 151.642 27.9065 151.527 27.9065H149.645ZM147.606 18.8253C147.554 18.8253 147.528 18.8514 147.528 18.9037V21.5857C147.528 21.638 147.554 21.6641 147.606 21.6641H148.312C148.636 21.6641 148.897 21.5387 149.096 21.2877C149.305 21.0263 149.41 20.6813 149.41 20.2526C149.41 19.8134 149.305 19.4683 149.096 19.2174C148.897 18.956 148.636 18.8253 148.312 18.8253H147.606Z" fill="#00242C"/>
<path d="M136.401 27.9065C136.276 27.9065 136.208 27.849 136.197 27.7339L135.946 26.2283C135.946 26.176 135.915 26.1498 135.852 26.1498H133.86C133.797 26.1498 133.766 26.176 133.766 26.2283L133.515 27.7339C133.505 27.849 133.437 27.9065 133.311 27.9065H131.476C131.34 27.9065 131.288 27.8385 131.319 27.7026L133.625 17.1C133.646 16.985 133.714 16.9275 133.829 16.9275H135.946C136.061 16.9275 136.129 16.985 136.15 17.1L138.44 27.7026L138.456 27.7653C138.456 27.8594 138.398 27.9065 138.283 27.9065H136.401ZM134.08 24.3618C134.08 24.4141 134.101 24.4402 134.143 24.4402H135.554C135.606 24.4402 135.627 24.4141 135.617 24.3618L134.88 20.08C134.869 20.0487 134.854 20.033 134.833 20.033C134.812 20.033 134.796 20.0487 134.786 20.08L134.08 24.3618Z" fill="#00242C"/>
<path d="M125.437 16.9275C125.489 16.9275 125.531 16.9484 125.562 16.9902C125.604 17.0216 125.625 17.0634 125.625 17.1157V18.6371C125.625 18.6894 125.604 18.7364 125.562 18.7782C125.531 18.8096 125.489 18.8253 125.437 18.8253H123.476C123.424 18.8253 123.398 18.8514 123.398 18.9037V27.7183C123.398 27.7705 123.377 27.8176 123.335 27.8594C123.303 27.8908 123.262 27.9065 123.209 27.9065H121.374C121.322 27.9065 121.275 27.8908 121.233 27.8594C121.202 27.8176 121.186 27.7705 121.186 27.7183V18.9037C121.186 18.8514 121.16 18.8253 121.108 18.8253H119.226C119.173 18.8253 119.126 18.8096 119.084 18.7782C119.053 18.7364 119.037 18.6894 119.037 18.6371V17.1157C119.037 17.0634 119.053 17.0216 119.084 16.9902C119.126 16.9484 119.173 16.9275 119.226 16.9275H125.437Z" fill="#00242C"/>
<path d="M101.865 27.9691C101.51 27.9691 101.212 27.8541 100.971 27.6241C100.741 27.3836 100.626 27.0856 100.626 26.7301C100.626 26.3641 100.741 26.0661 100.971 25.8361C101.201 25.606 101.499 25.491 101.865 25.491C102.231 25.491 102.529 25.606 102.759 25.8361C102.989 26.0661 103.104 26.3641 103.104 26.7301C103.104 27.0856 102.984 27.3836 102.743 27.6241C102.513 27.8541 102.221 27.9691 101.865 27.9691Z" fill="#00242C"/>
<path d="M91.7849 27.9065C91.6699 27.9065 91.5967 27.8542 91.5653 27.7496L90.3576 23.4208C90.3367 23.3789 90.3106 23.358 90.2792 23.358H89.746C89.6937 23.358 89.6675 23.3842 89.6675 23.4365V27.7183C89.6675 27.7705 89.6466 27.8176 89.6048 27.8594C89.5734 27.8908 89.5316 27.9065 89.4793 27.9065H87.6443C87.592 27.9065 87.5449 27.8908 87.5031 27.8594C87.4717 27.8176 87.4561 27.7705 87.4561 27.7183V17.1157C87.4561 17.0634 87.4717 17.0216 87.5031 16.9902C87.5449 16.9484 87.592 16.9275 87.6443 16.9275H90.8125C91.3876 16.9275 91.8999 17.0686 92.3495 17.351C92.7992 17.6228 93.1442 18.0097 93.3847 18.5116C93.6357 19.0135 93.7611 19.5886 93.7611 20.2369C93.7611 20.8538 93.6409 21.3975 93.4004 21.868C93.1704 22.3386 92.8462 22.7045 92.428 22.9659C92.4071 22.9764 92.3914 22.9921 92.3809 23.013C92.3705 23.0234 92.3705 23.0391 92.3809 23.06L93.8239 27.6869L93.8395 27.7496C93.8395 27.8542 93.782 27.9065 93.667 27.9065H91.7849ZM89.746 18.8253C89.6937 18.8253 89.6675 18.8514 89.6675 18.9037V21.5857C89.6675 21.638 89.6937 21.6641 89.746 21.6641H90.4517C90.7759 21.6641 91.0373 21.5387 91.236 21.2877C91.4451 21.0263 91.5496 20.6813 91.5496 20.2526C91.5496 19.8134 91.4451 19.4683 91.236 19.2174C91.0373 18.956 90.7759 18.8253 90.4517 18.8253H89.746Z" fill="#00242C"/>
<path d="M74.2251 27.9065C74.1728 27.9065 74.1257 27.8908 74.0839 27.8594C74.0525 27.8176 74.0369 27.7705 74.0369 27.7183V17.1157C74.0369 17.0634 74.0525 17.0216 74.0839 16.9902C74.1257 16.9484 74.1728 16.9275 74.2251 16.9275H77.0639C78.0154 16.9275 78.7787 17.2046 79.3538 17.7588C79.9289 18.3129 80.2165 19.0501 80.2165 19.9702V24.8637C80.2165 25.7839 79.9289 26.521 79.3538 27.0752C78.7787 27.6294 78.0154 27.9065 77.0639 27.9065H74.2251ZM76.2483 25.9303C76.2483 25.9825 76.2745 26.0087 76.3268 26.0087L77.0326 25.993C77.3149 25.9825 77.5449 25.8623 77.7227 25.6322C77.9004 25.4022 77.9945 25.099 78.005 24.7226V20.1114C78.005 19.7141 77.9161 19.4004 77.7383 19.1703C77.5606 18.9403 77.3201 18.8253 77.0169 18.8253H76.3268C76.2745 18.8253 76.2483 18.8514 76.2483 18.9037V25.9303Z" fill="#00242C"/>
<path d="M191.961 41.7668C191.893 41.7668 191.851 41.7329 191.836 41.6651L191.588 40.3647C191.588 40.3496 191.58 40.3383 191.565 40.3308C191.557 40.3233 191.546 40.3195 191.531 40.3195H189.688C189.673 40.3195 189.658 40.3233 189.643 40.3308C189.635 40.3383 189.631 40.3496 189.631 40.3647L189.394 41.6651C189.386 41.7329 189.345 41.7668 189.27 41.7668H188.41C188.373 41.7668 188.342 41.7555 188.32 41.7329C188.305 41.7103 188.301 41.6801 188.308 41.6424L189.993 33.9535C190.008 33.8857 190.05 33.8517 190.118 33.8517H191.124C191.199 33.8517 191.241 33.8857 191.248 33.9535L192.944 41.6424V41.6651C192.944 41.7329 192.911 41.7668 192.843 41.7668H191.961ZM189.824 39.4149C189.824 39.4451 189.835 39.4601 189.858 39.4601H191.361C191.384 39.4601 191.395 39.4451 191.395 39.4149L190.626 35.4008C190.619 35.3858 190.611 35.3782 190.604 35.3782C190.596 35.3782 190.589 35.3858 190.581 35.4008L189.824 39.4149Z" fill="#00242C"/>
<path d="M172.027 33.9648C172.027 33.8894 172.064 33.8517 172.14 33.8517H172.988C173.063 33.8517 173.101 33.8894 173.101 33.9648V41.6538C173.101 41.7291 173.063 41.7668 172.988 41.7668H172.015C171.955 41.7668 171.913 41.7367 171.891 41.6764L169.969 36.5089C169.961 36.4939 169.95 36.4901 169.935 36.4976C169.92 36.4976 169.912 36.5052 169.912 36.5203L169.923 41.6538C169.923 41.7291 169.886 41.7668 169.81 41.7668H168.951C168.876 41.7668 168.838 41.7291 168.838 41.6538V33.9648C168.838 33.8894 168.876 33.8517 168.951 33.8517H169.912C169.972 33.8517 170.014 33.8819 170.036 33.9422L171.97 39.1096C171.978 39.1322 171.989 39.1435 172.004 39.1435C172.019 39.136 172.027 39.1209 172.027 39.0983V33.9648Z" fill="#00242C"/>
<path d="M152.061 33.9648C152.061 33.8894 152.099 33.8517 152.174 33.8517H153.034C153.109 33.8517 153.147 33.8894 153.147 33.9648V41.6538C153.147 41.7291 153.109 41.7668 153.034 41.7668H152.174C152.099 41.7668 152.061 41.7291 152.061 41.6538V38.3181C152.061 38.288 152.046 38.2729 152.016 38.2729H150.308C150.278 38.2729 150.263 38.288 150.263 38.3181V41.6538C150.263 41.7291 150.226 41.7668 150.15 41.7668H149.291C149.215 41.7668 149.178 41.7291 149.178 41.6538V33.9648C149.178 33.8894 149.215 33.8517 149.291 33.8517H150.15C150.226 33.8517 150.263 33.8894 150.263 33.9648V37.2892C150.263 37.3193 150.278 37.3344 150.308 37.3344H152.016C152.046 37.3344 152.061 37.3193 152.061 37.2892V33.9648Z" fill="#00242C"/>
<path d="M131.721 41.8579C131.126 41.8579 130.643 41.6732 130.274 41.3038C129.912 40.9269 129.731 40.4369 129.731 39.8339V39.5399C129.731 39.4645 129.769 39.4268 129.844 39.4268H130.681C130.757 39.4268 130.794 39.4645 130.794 39.5399V39.7774C130.794 40.1241 130.881 40.403 131.054 40.6141C131.228 40.8176 131.45 40.9194 131.721 40.9194C131.993 40.9194 132.215 40.8214 132.389 40.6254C132.569 40.4219 132.66 40.158 132.66 39.8339C132.66 39.6153 132.611 39.4231 132.513 39.2572C132.422 39.0914 132.298 38.9444 132.14 38.8162C131.989 38.6806 131.74 38.4846 131.394 38.2283C131.009 37.9418 130.708 37.6968 130.489 37.4933C130.27 37.2898 130.086 37.0448 129.935 36.7583C129.784 36.4719 129.709 36.1364 129.709 35.752C129.709 35.1414 129.89 34.6589 130.251 34.3046C130.613 33.9428 131.084 33.7619 131.665 33.7619C132.268 33.7619 132.75 33.9541 133.112 34.3386C133.482 34.723 133.666 35.2281 133.666 35.8537V36.1364C133.666 36.2118 133.629 36.2495 133.553 36.2495H132.716C132.641 36.2495 132.603 36.2118 132.603 36.1364V35.8311C132.603 35.4919 132.517 35.2205 132.343 35.017C132.17 34.8059 131.944 34.7004 131.665 34.7004C131.401 34.7004 131.186 34.7946 131.02 34.9831C130.855 35.164 130.772 35.4203 130.772 35.752C130.772 36.0535 130.855 36.3098 131.02 36.5209C131.186 36.7244 131.507 36.9995 131.981 37.3463C132.434 37.6855 132.773 37.9607 132.999 38.1717C133.233 38.3828 133.41 38.6165 133.531 38.8728C133.659 39.1215 133.723 39.4193 133.723 39.7661C133.723 40.3993 133.538 40.9081 133.169 41.2925C132.799 41.6694 132.317 41.8579 131.721 41.8579Z" fill="#00242C"/>
<path d="M113.271 41.7668C113.196 41.7668 113.158 41.7291 113.158 41.6538V33.9648C113.158 33.8894 113.196 33.8517 113.271 33.8517H114.13C114.206 33.8517 114.243 33.8894 114.243 33.9648V41.6538C114.243 41.7291 114.206 41.7668 114.13 41.7668H113.271Z" fill="#00242C"/>
<path d="M96.8175 41.7668C96.7496 41.7668 96.7044 41.7367 96.6818 41.6764L95.6415 38.3068C95.634 38.2842 95.6189 38.2729 95.5963 38.2729H94.8048C94.7746 38.2729 94.7596 38.288 94.7596 38.3181V41.6538C94.7596 41.7291 94.7219 41.7668 94.6465 41.7668H93.7871C93.7118 41.7668 93.6741 41.7291 93.6741 41.6538V33.9648C93.6741 33.8894 93.7118 33.8517 93.7871 33.8517H95.8111C96.1956 33.8517 96.5348 33.946 96.8288 34.1344C97.1228 34.3229 97.3489 34.5905 97.5072 34.9372C97.6731 35.2765 97.756 35.6647 97.756 36.1019C97.756 36.5768 97.658 36.9914 97.462 37.3457C97.266 37.6924 96.9984 37.945 96.6592 38.1033C96.6366 38.1259 96.629 38.1485 96.6366 38.1711L97.7899 41.6424L97.8012 41.6877C97.8012 41.7404 97.7673 41.7668 97.6995 41.7668H96.8175ZM94.8048 34.7902C94.7746 34.7902 94.7596 34.8053 94.7596 34.8355V37.3683C94.7596 37.3985 94.7746 37.4135 94.8048 37.4135H95.6415C95.9506 37.4135 96.1994 37.2967 96.3878 37.063C96.5763 36.8218 96.6705 36.5052 96.6705 36.1132C96.6705 35.7061 96.5763 35.3858 96.3878 35.1521C96.1994 34.9109 95.9506 34.7902 95.6415 34.7902H94.8048Z" fill="#00242C"/>
<path d="M74.1602 41.7668C74.0848 41.7668 74.0471 41.7291 74.0471 41.6538V33.9648C74.0471 33.8894 74.0848 33.8517 74.1602 33.8517H75.0195C75.0949 33.8517 75.1326 33.8894 75.1326 33.9648V37.357C75.1326 37.3796 75.1402 37.3947 75.1552 37.4022C75.1703 37.4022 75.1816 37.3909 75.1892 37.3683L77.1114 33.9309C77.1491 33.8781 77.1943 33.8517 77.2471 33.8517H78.1743C78.2195 33.8517 78.2496 33.8668 78.2647 33.897C78.2798 33.9196 78.276 33.9497 78.2534 33.9874L76.5121 37.1308C76.5046 37.1535 76.5046 37.1761 76.5121 37.1987L78.4004 41.6311L78.4117 41.6764C78.4117 41.7367 78.3778 41.7668 78.31 41.7668H77.3715C77.3111 41.7668 77.2697 41.7367 77.2471 41.6764L75.7771 38.1485C75.7696 38.1108 75.7507 38.107 75.7206 38.1372L75.1439 39.0531C75.1364 39.0606 75.1326 39.0795 75.1326 39.1096V41.6538C75.1326 41.7291 75.0949 41.7668 75.0195 41.7668H74.1602Z" fill="#00242C"/>
</svg>
